<svg xmlns="http://www.w3.org/2000/svg" viewBox="0 0 320 120">
  <!-- Icon mark -->
  <!-- Sky circle -->
  <circle cx="56" cy="46" r="44" fill="#fff8f0"/>

  <!-- Rainbow arcs -->
  <path d="M16 58 Q56 10 96 58" fill="none" stroke="#ff6b6b" stroke-width="4.5" stroke-linecap="round"/>
  <path d="M20 63 Q56 16 92 63" fill="none" stroke="#ff9f43" stroke-width="4.5" stroke-linecap="round"/>
  <path d="M24 67 Q56 22 88 67" fill="none" stroke="#ffd93d" stroke-width="4.5" stroke-linecap="round"/>
  <path d="M28 70 Q56 28 84 70" fill="none" stroke="#6bcb77" stroke-width="4.5" stroke-linecap="round"/>
  <path d="M32 73 Q56 34 80 73" fill="none" stroke="#4d96ff" stroke-width="4.5" stroke-linecap="round"/>
  <path d="M36 75 Q56 39 76 75" fill="none" stroke="#a66cff" stroke-width="4.5" stroke-linecap="round"/>

  <!-- Book left page -->
  <path d="M24 72 Q42 66 54 70 L54 90 Q41 86 24 92 Z" fill="#fffde7"/>
  <path d="M24 72 Q42 66 54 70 L54 90 Q41 86 24 92 Z" fill="none" stroke="#f4a261" stroke-width="1.8"/>

  <!-- Book right page -->
  <path d="M58 70 Q70 66 88 72 L88 92 Q71 86 58 90 Z" fill="#fffde7"/>
  <path d="M58 70 Q70 66 88 72 L88 92 Q71 86 58 90 Z" fill="none" stroke="#f4a261" stroke-width="1.8"/>

  <!-- Spine -->
  <path d="M54 70 L54 90 Q56 91 58 90 L58 70 Q56 69 54 70 Z" fill="#f4a261"/>

  <!-- Bottom strip -->
  <path d="M24 92 Q41 87 54 90 Q56 91 58 90 Q71 87 88 92 L88 97 Q71 92 58 95 Q56 96 54 95 Q41 92 24 97 Z" fill="#f4a261"/>

  <!-- Book face -->
  <circle cx="46" cy="80" r="2" fill="#f4845f"/>
  <circle cx="66" cy="80" r="2" fill="#f4845f"/>
  <path d="M50 86 Q56 91 62 86" fill="none" stroke="#f4845f" stroke-width="1.8" stroke-linecap="round"/>

  <!-- Stars -->
  <polygon points="18,40 19.3,36 20.6,40 25,40 21.5,42.5 22.5,47 18,44 13.5,47 14.5,42.5 11,40" fill="#ffd93d"/>
  <polygon points="93,34 94,30 95,34 99,34 96,36 97,40 93,37.5 89,40 90,36 87,34" fill="#ff6b6b" transform="scale(0.85) translate(20,5)"/>
  <circle cx="12" cy="56" r="3" fill="#ff9f43"/>
  <circle cx="100" cy="58" r="2.5" fill="#a66cff"/>
  <circle cx="56" cy="14" r="2.5" fill="#4d96ff"/>

  <!-- Wordmark -->
  <text x="120" y="62" font-family="'Fredoka One', 'Nunito', 'Comic Sans MS', cursive" font-size="52" font-weight="400" letter-spacing="2">
    <tspan fill="#ff6b6b">G</tspan><tspan fill="#ff9f43">l</tspan><tspan fill="#e6b800">u</tspan><tspan fill="#6bcb77">m</tspan><tspan fill="#4d96ff">b</tspan><tspan fill="#a66cff">i</tspan>
  </text>

  <!-- Tagline -->
  <text x="122" y="85" font-family="'Nunito', 'Fredoka One', sans-serif" font-size="13" fill="#f4a261" font-weight="700" letter-spacing="0.5">where little stories grow ✨</text>
</svg>
